# xmcd
#
# Track frame offsets: 
#        183
#        29313
#        40843
#        53678
#        62870
#        75263
#        88488
#        101368
#        118510
#        131118
#        143625
#        153240
#        168130
#        183730
#
# Disc length: 2599 seconds
#
# Revision: 0
# Processed by: cddbd v1.5.2PL0 Copyright (c) Steve Scherf et al.
# Submitted via: ExactAudioCopy v0.99pb5
#
DISCID=b20a250e
DTITLE=Bobby Womack - The Midnight Mover
DYEAR=1989
DGENRE=Soul
TTITLE0=I Can Understand It
TTITLE1=Lookin' For A Love
TTITLE2=It's All Over Now
TTITLE3=I'm A Midnight Mover
TTITLE4=I'm In Love
TTITLE5=Arkansas State Prison
TTITLE6=That's Heaven To Me
TTITLE7=Harry Hippie
TTITLE8=Tried And Convicted
TTITLE9=Don't Look Back
TTITLE10=Fly Me To The Moon
TTITLE11=California Dreamin'
TTITLE12=Woman's Gotta Have It
TTITLE13=Behind Closed Doors
EXTD=
EXTT0=
EXTT1=
EXTT2=
EXTT3=
EXTT4=
EXTT5=
EXTT6=
EXTT7=
EXTT8=
EXTT9=
EXTT10=
EXTT11=
EXTT12=
EXTT13=
PLAYORDER=
